HIERARCHY
ROOT Pelvis
{
	OFFSET 0.000000 0.000000 0.000000
	CHANNELS 6 Xposition Yposition Zposition Xrotation Yrotation Zrotation
	JOINT LeftUpLeg_virtual
	{
		OFFSET 0.000000 0.000000 0.000000
		CHANNELS 3 Xrotation Yrotation Zrotation
		JOINT LeftUpLeg
		{
			OFFSET 18.735201 -5.666702 -4.541200
			CHANNELS 3 Xrotation Yrotation Zrotation
			JOINT LeftLeg
			{
				OFFSET -0.021200 -31.938179 0.493100
				CHANNELS 3 Xrotation Yrotation Zrotation
				JOINT LeftFoot
				{
					OFFSET 0.021200 -31.938179 -4.336299
					CHANNELS 3 Xrotation Yrotation Zrotation
					JOINT LeftToeBase
					{
						OFFSET 0.943001 -26.722000 15.023500
						CHANNELS 3 Xrotation Yrotation Zrotation
						End Site
						{
							OFFSET 0 0 0
						}
					}
				}
			}
		}
	}
	JOINT RightUpLeg_virtual
	{
		OFFSET 0.000000 0.000000 0.000000
		CHANNELS 3 Xrotation Yrotation Zrotation
		JOINT RightUpLeg
		{
			OFFSET -18.735201 -5.666702 -4.541200
			CHANNELS 3 Xrotation Yrotation Zrotation
			JOINT RightLeg
			{
				OFFSET 0.018946 -31.938133 0.493100
				CHANNELS 3 Xrotation Yrotation Zrotation
				JOINT RightFoot
				{
					OFFSET -0.018946 -31.938126 -4.336299
					CHANNELS 3 Xrotation Yrotation Zrotation
					JOINT RightToeBase
					{
						OFFSET -0.943001 -26.722004 15.023500
						CHANNELS 3 Xrotation Yrotation Zrotation
						End Site
						{
							OFFSET 0 0 0
						}
					}
				}
			}
		}
	}
	JOINT Hips_virtual
	{
		OFFSET 0.000000 0.000000 0.000000
		CHANNELS 3 Xrotation Yrotation Zrotation
		JOINT Hips
		{
			OFFSET -0.000000 -0.000000 -0.000000
			CHANNELS 3 Xrotation Yrotation Zrotation
			JOINT Spine
			{
				OFFSET 0.000000 10.199997 -0.299500
				CHANNELS 3 Xrotation Yrotation Zrotation
				JOINT Spine1
				{
					OFFSET 0.000000 11.900002 -1.516600
					CHANNELS 3 Xrotation Yrotation Zrotation
					JOINT Spine2
					{
						OFFSET 0.000000 13.600006 -2.842500
						CHANNELS 3 Xrotation Yrotation Zrotation
						JOINT Neck_virtual
						{
							OFFSET 0.000000 0.000000 0.000000
							CHANNELS 3 Xrotation Yrotation Zrotation
							JOINT Neck
							{
								OFFSET 0.000000 9.624100 -2.890100
								CHANNELS 3 Xrotation Yrotation Zrotation
								JOINT Head
								{
									OFFSET 0.000000 14.068802 -1.351900
									CHANNELS 3 Xrotation Yrotation Zrotation
									End Site
									{
										OFFSET 0 0 0
									}
								}
							}
						}
						JOINT LeftShoulder_virtual
						{
							OFFSET 0.000000 0.000000 0.000000
							CHANNELS 3 Xrotation Yrotation Zrotation
							JOINT LeftShoulder
							{
								OFFSET 15.263000 10.923401 -0.547700
								CHANNELS 3 Xrotation Yrotation Zrotation
								JOINT LeftArm
								{
									OFFSET 25.438599 -2.830597 -13.032500
									CHANNELS 3 Xrotation Yrotation Zrotation
									JOINT LeftForeArm
									{
										OFFSET 29.960503 0.000000 0.000000
										CHANNELS 3 Xrotation Yrotation Zrotation
										JOINT LeftHand
										{
											OFFSET 27.849251 0.000000 0.000000
											CHANNELS 3 Xrotation Yrotation Zrotation
											End Site
											{
												OFFSET 0 0 0
											}
										}
									}
								}
							}
						}
						JOINT RightShoulder_virtual
						{
							OFFSET 0.000000 0.000000 0.000000
							CHANNELS 3 Xrotation Yrotation Zrotation
							JOINT RightShoulder
							{
								OFFSET -15.263000 10.923401 -0.547700
								CHANNELS 3 Xrotation Yrotation Zrotation
								JOINT RightArm
								{
									OFFSET -25.438599 -2.830597 -13.032500
									CHANNELS 3 Xrotation Yrotation Zrotation
									JOINT RightForeArm
									{
										OFFSET -29.960503 0.000000 0.000000
										CHANNELS 3 Xrotation Yrotation Zrotation
										JOINT RightHand
										{
											OFFSET -27.849251 0.000000 0.000000
											CHANNELS 3 Xrotation Yrotation Zrotation
											End Site
											{
												OFFSET 0 0 0
											}
										}
									}
								}
							}
						}
					}
				}
			}
		}
	}
}
MOTION
Frames: 11
Frame Time: 0.03333333
-0.200819 93.919464 4.293848 0.000000 0.000000 0.000000 -0.316973 -0.854462 0.805481 -11.363696 12.475366 10.829041 17.972186 -10.257438 0.390802 -7.643035 0.695833 -8.028105 0.000000 0.000000 0.000000 -0.316973 -0.854462 0.805481 -10.493709 -8.536590 -15.708786 17.626840 7.136128 2.652983 -8.092854 -1.145556 9.477208 0.000000 0.000000 0.000000 -0.316973 -0.854462 0.805481 0.000000 0.000000 0.000000 0.602047 0.534191 0.195764 0.948881 0.543752 -0.036077 0.000000 0.000000 0.000000 0.949056 0.535715 -0.036774 0.705539 -0.506616 -0.271102 0.000000 0.000000 0.000000 0.949056 0.535715 -0.036774 0.691656 -2.499305 -11.191562 5.273946 -17.247119 -62.895278 0.000002 -21.850197 0.000015 0.000000 0.000000 0.000000 0.949056 0.535715 -0.036774 0.450398 7.851257 13.847200 5.786521 9.805980 61.054952 -0.000002 23.253208 0.000006 0.000000 0.000000 0.000000 
-0.203440 93.919052 4.324821 0.000000 0.000000 0.000000 -0.316974 -0.874044 0.805299 -11.325507 12.485021 10.831958 17.957991 -10.258875 0.390101 -7.665360 0.715453 -8.033263 0.000000 0.000000 0.000000 -0.316974 -0.874044 0.805299 -10.466984 -8.529281 -15.709539 17.606843 7.136121 2.645603 -8.099766 -1.146921 9.491089 0.000000 0.000000 0.000000 -0.316974 -0.874044 0.805299 0.000000 0.000000 0.000000 0.602047 0.534234 0.185031 0.948880 0.543752 -0.041389 0.000000 0.000000 0.000000 0.949055 0.535716 -0.036774 0.709810 -0.495355 -0.261574 0.000000 0.000000 0.000000 0.949055 0.535716 -0.036774 0.691601 -2.499366 -11.192655 5.373539 -17.224134 -62.870129 -0.000000 -21.977805 -0.000014 0.000000 0.000000 0.000000 0.949055 0.535716 -0.036774 0.452104 7.851159 13.834700 5.909142 9.840622 61.120221 0.000007 23.315442 -0.000013 0.000000 0.000000 0.000000 
-0.206485 93.917740 4.357849 0.000000 0.000000 0.000000 -0.316975 -0.891369 0.805244 -11.285646 12.494449 10.833940 17.949959 -10.260019 0.389695 -7.695870 0.730656 -8.037055 0.000000 0.000000 0.000000 -0.316975 -0.891369 0.805244 -10.442013 -8.523811 -15.705024 17.604794 7.131416 2.639393 -8.121394 -1.147753 9.496629 0.000000 0.000000 0.000000 -0.316975 -0.891369 0.805244 0.000000 0.000000 0.000000 0.602045 0.538010 0.174495 0.948881 0.543752 -0.047615 0.000000 0.000000 0.000000 0.949056 0.535716 -0.042374 0.713760 -0.482731 -0.253509 0.000000 0.000000 0.000000 0.949056 0.535716 -0.042374 0.692010 -2.516156 -11.214497 5.525728 -17.246013 -62.798849 0.000001 -22.198154 -0.000010 0.000000 0.000000 0.000000 0.949056 0.535716 -0.042374 0.449468 7.849635 13.857038 6.043052 9.889813 61.153778 -0.000000 23.361521 -0.000018 0.000000 0.000000 0.000000 
-0.209495 93.913307 4.391407 0.000000 0.000000 0.000000 -0.316975 -0.902866 0.801866 -11.262857 12.498017 10.843212 17.973663 -10.262476 0.390109 -7.742738 0.739479 -8.039523 0.000000 0.000000 0.000000 -0.316975 -0.902866 0.801866 -10.417503 -8.508460 -15.691017 17.622214 7.111373 2.625130 -8.156160 -1.155213 9.505947 0.000000 0.000000 0.000000 -0.316975 -0.902866 0.801866 0.000000 0.000000 0.000000 0.603265 0.543349 0.166488 0.952789 0.543752 -0.056660 0.000000 0.000000 0.000000 0.952979 0.540084 -0.051263 0.718585 -0.467924 -0.251424 0.000000 0.000000 0.000000 0.952979 0.540084 -0.051263 0.691129 -2.553943 -11.273601 5.631549 -17.345948 -62.656932 -0.000000 -22.462032 -0.000010 0.000000 0.000000 0.000000 0.952979 0.540084 -0.051263 0.446511 7.844588 13.940670 6.222918 9.968893 61.098843 -0.000008 23.471773 0.000029 0.000000 0.000000 0.000000 
-0.211102 93.901039 4.420446 0.000000 0.000000 0.000000 -0.311848 -0.905863 0.790173 -11.294621 12.482923 10.864326 18.079448 -10.266009 0.400783 -7.822663 0.751264 -8.040746 0.000000 0.000000 0.000000 -0.311848 -0.905863 0.790173 -10.412095 -8.467103 -15.659332 17.680284 7.067807 2.594825 -8.208586 -1.166142 9.524706 0.000000 0.000000 0.000000 -0.311848 -0.905863 0.790173 0.000000 0.000000 0.000000 0.611216 0.551970 0.165054 0.963187 0.543752 -0.069054 0.000000 0.000000 0.000000 0.963427 0.544780 -0.063332 0.727900 -0.450444 -0.257841 0.000000 0.000000 0.000000 0.963427 0.544780 -0.063332 0.687645 -2.578771 -11.358226 5.493326 -17.548540 -62.451172 -0.000005 -22.647000 -0.000006 0.000000 0.000000 0.000000 0.963427 0.544780 -0.063332 0.440788 7.832455 14.103889 6.457134 10.074929 60.890460 0.000002 23.759032 -0.000008 0.000000 0.000000 0.000000 
-0.210131 93.875496 4.433195 0.000000 0.000000 0.000000 -0.280255 -0.897870 0.765525 -11.436046 12.424988 10.896302 18.315542 -10.268261 0.434565 -7.946932 0.780806 -8.041892 0.000000 0.000000 0.000000 -0.280255 -0.897870 0.765525 -10.469951 -8.396363 -15.609308 17.801302 7.006932 2.553262 -8.279101 -1.176016 9.548009 0.000000 0.000000 0.000000 -0.280255 -0.897870 0.765525 0.000000 0.000000 0.000000 0.623589 0.564873 0.173678 0.977187 0.547997 -0.082176 0.000000 0.000000 0.000000 0.977506 0.549153 -0.075892 0.745292 -0.430989 -0.270876 0.000000 0.000000 0.000000 0.977506 0.549153 -0.075892 0.680729 -2.547518 -11.411947 4.909342 -17.855008 -62.220824 -0.000010 -22.650905 -0.000014 0.000000 0.000000 0.000000 0.977506 0.549153 -0.075892 0.433137 7.815237 14.329534 6.676400 10.183191 60.500081 0.000000 24.311973 -0.000002 0.000000 0.000000 0.000000 
-0.206399 93.835915 4.408585 0.000000 0.000000 0.000000 -0.179815 -0.875453 0.724037 -11.746487 12.287273 10.921400 18.684536 -10.263621 0.515185 -8.093889 0.858622 -8.052002 0.000000 0.000000 0.000000 -0.179815 -0.875453 0.724037 -10.651634 -8.319812 -15.547070 17.965947 6.949735 2.521064 -8.336380 -1.179608 9.559567 0.000000 0.000000 0.000000 -0.179815 -0.875453 0.724037 0.000000 0.000000 0.000000 0.632488 0.584235 0.193760 0.987531 0.553731 -0.090297 0.000000 0.000000 0.000000 0.987945 0.554976 -0.083196 0.769159 -0.412110 -0.284966 0.000000 0.000000 0.000000 0.987945 0.554976 -0.083196 0.671088 -2.450089 -11.354334 3.831879 -18.217931 -61.992552 -0.000013 -22.598400 -0.000016 0.000000 0.000000 0.000000 0.987945 0.554976 -0.083196 0.426407 7.793745 14.551527 6.731388 10.282454 59.960626 0.000004 25.166860 -0.000003 0.000000 0.000000 0.000000 
-0.200118 93.790375 4.316526 0.000000 0.000000 0.000000 0.046413 -0.835314 0.659853 -12.273538 12.024125 10.908861 19.120491 -10.245207 0.670344 -8.198129 1.020696 -8.086713 0.000000 0.000000 0.000000 0.046413 -0.835314 0.659853 -11.007126 -8.276214 -15.468548 18.083679 6.903913 2.516228 -8.301926 -1.167496 9.546444 0.000000 0.000000 0.000000 0.046413 -0.835314 0.659853 0.000000 0.000000 0.000000 0.629157 0.615342 0.229388 0.987646 0.569159 -0.086782 0.000000 0.000000 0.000000 0.988144 0.570352 -0.078721 0.787405 -0.397492 -0.296473 0.000000 0.000000 0.000000 0.988144 0.570352 -0.078721 0.661727 -2.328175 -11.140426 2.429771 -18.524848 -61.721626 -0.000002 -22.985492 0.000003 0.000000 0.000000 0.000000 0.988144 0.570352 -0.078721 0.424455 7.763332 14.682905 6.474126 10.425591 59.320644 0.000008 26.372562 -0.000006 0.000000 0.000000 0.000000 
-0.184922 93.740410 4.122139 0.000000 0.000000 0.000000 0.449750 -0.777156 0.533562 -13.138995 11.568433 10.894791 19.682597 -10.018345 0.909466 -8.251270 1.106460 -8.181908 0.000000 0.000000 0.000000 0.449750 -0.777156 0.533562 -11.560213 -8.285796 -15.314560 18.036930 6.843762 2.522459 -8.077159 -1.132612 9.521145 0.000000 0.000000 0.000000 0.449750 -0.777156 0.533562 0.000000 0.000000 0.000000 0.613310 0.664575 0.331616 0.980516 0.607874 -0.063871 0.000000 0.000000 0.000000 0.981023 0.608908 -0.054973 0.778710 -0.386484 -0.296395 0.000000 0.000000 0.000000 0.981023 0.608908 -0.054973 0.657628 -2.243741 -10.815322 0.915707 -18.654930 -61.320865 0.000007 -24.449876 0.000015 0.000000 0.000000 0.000000 0.981023 0.608908 -0.054973 0.429738 7.719690 14.670217 5.866566 10.717024 58.540766 0.000001 28.123449 -0.000009 0.000000 0.000000 0.000000 
-0.154022 93.640625 3.791796 0.000000 0.000000 0.000000 1.057408 -0.709178 0.295545 -14.653472 10.820957 11.046491 20.843314 -9.615907 1.221460 -8.454364 1.158158 -8.544363 0.000000 0.000000 0.000000 1.057408 -0.709178 0.295545 -12.459117 -8.287658 -15.026317 18.034471 6.749438 2.489048 -7.729755 -1.087019 9.506216 0.000000 0.000000 0.000000 1.057408 -0.709178 0.295545 0.000000 0.000000 0.000000 0.595191 0.737001 0.574450 0.980719 0.682412 -0.019501 0.000000 0.000000 0.000000 0.981053 0.683405 -0.010372 0.720692 -0.380039 -0.294821 0.000000 0.000000 0.000000 0.981053 0.683405 -0.010372 0.665343 -2.220587 -10.496099 -0.686606 -18.557615 -60.756390 -0.000015 -27.384375 -0.000029 0.000000 0.000000 0.000000 0.981053 0.683405 -0.010372 0.442956 7.666338 14.515004 4.976908 11.221999 57.479839 -0.000006 30.774374 0.000026 0.000000 0.000000 0.000000 
-0.135069 93.391167 3.307974 0.000000 0.000000 0.000000 1.864968 -0.648045 0.113298 -16.856492 9.853615 11.177153 22.727801 -9.130636 1.534121 -8.853440 1.235870 -8.893662 0.000000 0.000000 0.000000 1.864968 -0.648045 0.113298 -14.302808 -8.068297 -14.840691 19.218008 6.720098 2.383433 -7.810443 -1.088925 9.454626 0.000000 0.000000 0.000000 1.864968 -0.648045 0.113298 0.000000 0.000000 0.000000 0.602526 0.824728 0.769072 1.011170 0.786450 0.009448 0.000000 0.000000 0.000000 1.011393 0.787397 0.017667 0.596924 -0.373722 -0.295365 0.000000 0.000000 0.000000 1.011393 0.787397 0.017667 0.685933 -2.226723 -10.294838 -2.552055 -18.217870 -60.016155 0.000005 -31.850767 0.000003 0.000000 0.000000 0.000000 1.011393 0.787397 0.017667 0.461277 7.616657 14.254980 3.748786 11.962926 56.087174 0.000010 34.424642 -0.000037 0.000000 0.000000 0.000000 
